<svg width="153" height="154" viewBox="0 0 153 154" fill="none" xmlns="http://www.w3.org/2000/svg">
<g filter="url(#filter0_dd_469_7862)">
<g clip-path="url(#clip0_469_7862)">
<rect x="13.9922" y="3" width="124.755" height="124.755" rx="32.3438" fill="#FF455D" fill-opacity="0.1" shape-rendering="crispEdges"/>
<g filter="url(#filter1_dd_469_7862)">
<g clip-path="url(#clip1_469_7862)">
<rect x="20.9219" y="9.93066" width="110.893" height="110.893" rx="25.413" fill="url(#paint0_linear_469_7862)"/>
<g filter="url(#filter2_d_469_7862)">
<rect x="25.543" y="14.5518" width="101.652" height="101.652" rx="21.9476" fill="white" fill-opacity="0.01" shape-rendering="crispEdges"/>
<g filter="url(#filter3_i_469_7862)">
<rect x="25.543" y="14.5518" width="101.652" height="101.652" rx="21.9476" fill="white" fill-opacity="0.01"/>
<g filter="url(#filter4_i_469_7862)">
<rect width="74.8528" height="74.8528" transform="translate(38.9414 27.9512)" fill="white" fill-opacity="0.01"/>
<g filter="url(#filter5_d_469_7862)">
<rect x="38.9414" y="27.9512" width="74.8528" height="74.8528" fill="white" fill-opacity="0.01" shape-rendering="crispEdges"/>
</g>
</g>
<g filter="url(#filter6_i_469_7862)">
<rect x="50.4961" y="39.5029" width="51.7501" height="51.7501" rx="11.5514" fill="white" fill-opacity="0.01"/>
<g filter="url(#filter7_d_469_7862)">
<rect x="50.4961" y="39.5029" width="51.7501" height="51.7501" rx="11.5514" fill="white" fill-opacity="0.01" shape-rendering="crispEdges"/>
</g>
</g>
</g>
</g>
<g clip-path="url(#clip2_469_7862)">
<path fill-rule="evenodd" clip-rule="evenodd" d="M20.9213 47.6025C18.0398 49.6697 16.3008 53.0134 16.3008 56.6059C16.3008 62.7262 21.2622 67.6876 27.3825 67.6876H45.7568V63.067H27.3825C23.8141 63.067 20.9213 60.1742 20.9213 56.6059C20.9213 56.4484 20.9271 56.2918 20.9384 56.1362H20.9213V47.6025Z" fill="url(#paint1_linear_469_7862)"/>
<path fill-rule="evenodd" clip-rule="evenodd" d="M20.9213 47.6035C18.0398 49.6707 16.3008 53.0144 16.3008 56.6069C16.3008 62.7271 21.2622 67.6886 27.3825 67.6886H45.7568V63.068H27.3825C23.8141 63.068 20.9213 60.1752 20.9213 56.6069C20.9213 56.4494 20.9271 56.2928 20.9384 56.1372H20.9213V47.6035Z" fill="url(#paint2_linear_469_7862)"/>
</g>
<g clip-path="url(#clip3_469_7862)">
<path fill-rule="evenodd" clip-rule="evenodd" d="M131.816 83.1529C134.698 81.0857 136.436 77.742 136.436 74.1495C136.436 68.0293 131.475 63.0679 125.355 63.0679H106.98V67.6884H125.355C128.923 67.6884 131.816 70.5812 131.816 74.1495C131.816 74.307 131.81 74.4637 131.799 74.6192H131.816V83.1529Z" fill="url(#paint3_linear_469_7862)"/>
<path d="M131.816 83.1529C134.698 81.0857 136.436 77.742 136.436 74.1495C136.436 68.0293 131.475 63.0679 125.355 63.0679H106.98V67.6884H125.355C128.923 67.6884 131.816 70.5812 131.816 74.1495C131.816 74.307 131.81 74.4637 131.799 74.6192H131.816V83.1529Z" fill="url(#paint4_linear_469_7862)"/>
</g>
<g clip-path="url(#clip4_469_7862)">
<path d="M65.9727 54.9819H75.2137C76.4897 54.9819 77.524 56.0163 77.524 57.2922C77.524 58.5682 76.4897 59.6025 75.2137 59.6025H65.9727V54.9819Z" fill="url(#paint5_linear_469_7862)"/>
<path d="M65.9727 71.1538H75.2137C76.4897 71.1538 77.524 72.1881 77.524 73.4641C77.524 74.74 76.4897 75.7744 75.2137 75.7744H65.9727V71.1538Z" fill="url(#paint6_linear_469_7862)"/>
<path fill-rule="evenodd" clip-rule="evenodd" d="M65.9727 58.4473V59.6024H75.2137C76.0689 59.6024 76.8155 59.1378 77.2149 58.4473H65.9727Z" fill="#F2B600"/>
<path fill-rule="evenodd" clip-rule="evenodd" d="M65.9727 74.6191V75.7743H75.2137C76.0689 75.7743 76.8155 75.3097 77.2149 74.6191H65.9727Z" fill="#F2B600"/>
<path d="M34.7891 64.2232C34.7891 55.2917 42.0295 48.0513 50.961 48.0513H62.5123V82.7054H50.961C42.0295 82.7054 34.7891 75.465 34.7891 66.5335V64.2232Z" fill="url(#paint7_linear_469_7862)"/>
<path d="M50.9532 48.0503C42.0217 48.0503 34.7812 55.2907 34.7812 64.2222V65.3773C34.7812 56.4458 42.0217 49.2054 50.9532 49.2054H62.5045V48.0503H50.9532Z" fill="white"/>
<path d="M40.1133 78.5309C43.0726 81.8035 47.352 83.8597 52.1116 83.8597H63.663V49.2056H62.5078V82.7045H50.9565C46.7846 82.7045 42.9817 81.1249 40.1133 78.5309Z" fill="#C1C1C1"/>
<path d="M62.5078 48.0505C62.5078 46.7746 63.5421 45.7402 64.8181 45.7402H66.7923C66.978 45.7402 67.1284 45.8907 67.1284 46.0763V84.6788C67.1284 84.8645 66.978 85.0149 66.7923 85.0149H64.8181C63.5421 85.0149 62.5078 83.9806 62.5078 82.7046V65.3776V48.0505Z" fill="url(#paint8_linear_469_7862)"/>
<path d="M32.4727 61.9127C32.4727 59.9987 34.0242 58.4473 35.9381 58.4473V72.3089C34.0242 72.3089 32.4727 70.7574 32.4727 68.8435V61.9127Z" fill="url(#paint9_linear_469_7862)"/>
<g opacity="0.5">
<path d="M44.0273 60.1801C44.0273 59.8612 44.286 59.6025 44.6049 59.6025C44.9238 59.6025 45.1825 59.8612 45.1825 60.1801V70.5763C45.1825 70.8953 44.9238 71.1539 44.6049 71.1539C44.286 71.1539 44.0273 70.8953 44.0273 70.5763V60.1801Z" fill="url(#paint10_linear_469_7862)"/>
<path d="M46.3398 59.0253C46.3398 58.7064 46.5985 58.4478 46.9174 58.4478C47.2363 58.4478 47.495 58.7064 47.495 59.0253V71.7318C47.495 72.0508 47.2363 72.3094 46.9174 72.3094C46.5985 72.3094 46.3398 72.0508 46.3398 71.7318V59.0253Z" fill="url(#paint11_linear_469_7862)"/>
<path d="M49.8036 57.87C49.8036 57.5511 49.545 57.2925 49.226 57.2925C48.907 57.2925 48.6484 57.5511 48.6484 57.87V72.8868C48.6484 73.2058 48.907 73.4644 49.226 73.4644C49.545 73.4644 49.8036 73.2058 49.8036 72.8868V57.87Z" fill="url(#paint12_linear_469_7862)"/>
<path d="M52.1161 57.87C52.1161 57.5511 51.8575 57.2925 51.5385 57.2925C51.2195 57.2925 50.9609 57.5511 50.9609 57.87V72.8868C50.9609 73.2058 51.2195 73.4644 51.5385 73.4644C51.8575 73.4644 52.1161 73.2058 52.1161 72.8868V57.87Z" fill="url(#paint13_linear_469_7862)"/>
</g>
<path d="M66.5508 45.7402H67.1283V85.0149H66.5508V45.7402Z" fill="#D9D9D9"/>
</g>
<g clip-path="url(#clip5_469_7862)">
<path d="M117.954 64.2232C117.954 55.2917 110.713 48.0513 101.782 48.0513H90.2305V82.7054H101.782C110.713 82.7054 117.954 75.465 117.954 66.5335V64.2232Z" fill="url(#paint14_linear_469_7862)"/>
<path d="M101.782 48.0503C110.713 48.0503 117.954 55.2907 117.954 64.2222V65.3773C117.954 56.4458 110.713 49.2054 101.782 49.2054H90.2305V48.0503H101.782Z" fill="white"/>
<path d="M112.624 78.5309C109.665 81.8035 105.385 83.8597 100.626 83.8597H89.0742V49.2056H90.2294V82.7045H101.781C105.953 82.7045 109.755 81.1249 112.624 78.5309Z" fill="#C1C1C1"/>
<path d="M90.2299 48.0505C90.2299 46.7746 89.1956 45.7402 87.9196 45.7402H85.9454C85.7598 45.7402 85.6094 45.8907 85.6094 46.0763V84.6788C85.6094 84.8645 85.7598 85.0149 85.9454 85.0149H87.9196C89.1956 85.0149 90.2299 83.9806 90.2299 82.7046V65.3776V48.0505Z" fill="url(#paint15_linear_469_7862)"/>
<path d="M120.262 61.9127C120.262 59.9987 118.711 58.4473 116.797 58.4473V72.3089C118.711 72.3089 120.262 70.7574 120.262 68.8435V61.9127Z" fill="url(#paint16_linear_469_7862)"/>
<g opacity="0.5">
<path d="M108.718 60.1801C108.718 59.8612 108.459 59.6025 108.14 59.6025C107.821 59.6025 107.562 59.8612 107.562 60.1801V70.5763C107.562 70.8953 107.821 71.1539 108.14 71.1539C108.459 71.1539 108.718 70.8953 108.718 70.5763V60.1801Z" fill="url(#paint17_linear_469_7862)"/>
<path d="M106.405 59.0253C106.405 58.7064 106.147 58.4478 105.828 58.4478C105.509 58.4478 105.25 58.7064 105.25 59.0253V71.7318C105.25 72.0508 105.509 72.3094 105.828 72.3094C106.147 72.3094 106.405 72.0508 106.405 71.7318V59.0253Z" fill="url(#paint18_linear_469_7862)"/>
<path d="M102.943 57.87C102.943 57.5511 103.201 57.2925 103.52 57.2925C103.839 57.2925 104.098 57.5511 104.098 57.87V72.8868C104.098 73.2058 103.839 73.4644 103.52 73.4644C103.201 73.4644 102.943 73.2058 102.943 72.8868V57.87Z" fill="url(#paint19_linear_469_7862)"/>
<path d="M100.63 57.87C100.63 57.5511 100.889 57.2925 101.208 57.2925C101.527 57.2925 101.785 57.5511 101.785 57.87V72.8868C101.785 73.2058 101.527 73.4644 101.208 73.4644C100.889 73.4644 100.63 73.2058 100.63 72.8868V57.87Z" fill="url(#paint20_linear_469_7862)"/>
</g>
<path d="M85.6094 45.7402H86.1869V85.0149H85.6094V45.7402Z" fill="url(#paint21_linear_469_7862)"/>
</g>
</g>
</g>
</g>
</g>
<defs>
<filter id="filter0_dd_469_7862" x="0.130554" y="0.689729" width="152.477" height="152.478" filterUnits="userSpaceOnUse" color-interpolation-filters="sRGB">
<feFlood flood-opacity="0" result="BackgroundImageFix"/>
<feColorMatrix in="SourceAlpha" type="matrix" values="0 0 0 0 0 0 0 0 0 0 0 0 0 0 0 0 0 0 127 0" result="hardAlpha"/>
<feMorphology radius="4.62054" operator="erode" in="SourceAlpha" result="effect1_dropShadow_469_7862"/>
<feOffset dy="4.62054"/>
<feGaussianBlur stdDeviation="3.46541"/>
<feComposite in2="hardAlpha" operator="out"/>
<feColorMatrix type="matrix" values="0 0 0 0 1 0 0 0 0 0.270588 0 0 0 0 0.364706 0 0 0 0.6 0"/>
<feBlend mode="normal" in2="BackgroundImageFix" result="effect1_dropShadow_469_7862"/>
<feColorMatrix in="SourceAlpha" type="matrix" values="0 0 0 0 0 0 0 0 0 0 0 0 0 0 0 0 0 0 127 0" result="hardAlpha"/>
<feMorphology radius="3.46541" operator="erode" in="SourceAlpha" result="effect2_dropShadow_469_7862"/>
<feOffset dy="11.5514"/>
<feGaussianBlur stdDeviation="8.66352"/>
<feComposite in2="hardAlpha" operator="out"/>
<feColorMatrix type="matrix" values="0 0 0 0 1 0 0 0 0 0.270588 0 0 0 0 0.364706 0 0 0 0.6 0"/>
<feBlend mode="normal" in2="effect1_dropShadow_469_7862" result="effect2_dropShadow_469_7862"/>
<feBlend mode="normal" in="SourceGraphic" in2="effect2_dropShadow_469_7862" result="shape"/>
</filter>
<filter id="filter1_dd_469_7862" x="-2.18085" y="9.93066" width="157.1" height="157.099" filterUnits="userSpaceOnUse" color-interpolation-filters="sRGB">
<feFlood flood-opacity="0" result="BackgroundImageFix"/>
<feColorMatrix in="SourceAlpha" type="matrix" values="0 0 0 0 0 0 0 0 0 0 0 0 0 0 0 0 0 0 127 0" result="hardAlpha"/>
<feMorphology radius="6.93082" operator="erode" in="SourceAlpha" result="effect1_dropShadow_469_7862"/>
<feOffset dy="9.24109"/>
<feGaussianBlur stdDeviation="5.77568"/>
<feComposite in2="hardAlpha" operator="out"/>
<feColorMatrix type="matrix" values="0 0 0 0 0.560784 0 0 0 0 0.027451 0 0 0 0 0.0941176 0 0 0 0.05 0"/>
<feBlend mode="normal" in2="BackgroundImageFix" result="effect1_dropShadow_469_7862"/>
<feColorMatrix in="SourceAlpha" type="matrix" values="0 0 0 0 0 0 0 0 0 0 0 0 0 0 0 0 0 0 127 0" result="hardAlpha"/>
<feMorphology radius="5.77568" operator="erode" in="SourceAlpha" result="effect2_dropShadow_469_7862"/>
<feOffset dy="23.1027"/>
<feGaussianBlur stdDeviation="14.4392"/>
<feComposite in2="hardAlpha" operator="out"/>
<feColorMatrix type="matrix" values="0 0 0 0 0.560784 0 0 0 0 0.027451 0 0 0 0 0.0941176 0 0 0 0.05 0"/>
<feBlend mode="normal" in2="effect1_dropShadow_469_7862" result="effect2_dropShadow_469_7862"/>
<feBlend mode="normal" in="SourceGraphic" in2="effect2_dropShadow_469_7862" result="shape"/>
</filter>
<filter id="filter2_d_469_7862" x="23.2327" y="13.3966" width="106.273" height="106.272" filterUnits="userSpaceOnUse" color-interpolation-filters="sRGB">
<feFlood flood-opacity="0" result="BackgroundImageFix"/>
<feColorMatrix in="SourceAlpha" type="matrix" values="0 0 0 0 0 0 0 0 0 0 0 0 0 0 0 0 0 0 127 0" result="hardAlpha"/>
<feOffset dy="1.15514"/>
<feGaussianBlur stdDeviation="1.15514"/>
<feComposite in2="hardAlpha" operator="out"/>
<feColorMatrix type="matrix" values="0 0 0 0 1 0 0 0 0 1 0 0 0 0 1 0 0 0 0.4 0"/>
<feBlend mode="normal" in2="BackgroundImageFix" result="effect1_dropShadow_469_7862"/>
<feBlend mode="normal" in="SourceGraphic" in2="effect1_dropShadow_469_7862" result="shape"/>
</filter>
<filter id="filter3_i_469_7862" x="25.543" y="14.5518" width="101.652" height="103.962" filterUnits="userSpaceOnUse" color-interpolation-filters="sRGB">
<feFlood flood-opacity="0" result="BackgroundImageFix"/>
<feBlend mode="normal" in="SourceGraphic" in2="BackgroundImageFix" result="shape"/>
<feColorMatrix in="SourceAlpha" type="matrix" values="0 0 0 0 0 0 0 0 0 0 0 0 0 0 0 0 0 0 127 0" result="hardAlpha"/>
<feOffset dy="2.31027"/>
<feGaussianBlur stdDeviation="2.31027"/>
<feComposite in2="hardAlpha" operator="arithmetic" k2="-1" k3="1"/>
<feColorMatrix type="matrix" values="0 0 0 0 0.560784 0 0 0 0 0.027451 0 0 0 0 0.0941176 0 0 0 0.5 0"/>
<feBlend mode="normal" in2="shape" result="effect1_innerShadow_469_7862"/>
</filter>
<filter id="filter4_i_469_7862" x="38.9414" y="27.9512" width="74.8516" height="77.1633" filterUnits="userSpaceOnUse" color-interpolation-filters="sRGB">
<feFlood flood-opacity="0" result="BackgroundImageFix"/>
<feBlend mode="normal" in="SourceGraphic" in2="BackgroundImageFix" result="shape"/>
<feColorMatrix in="SourceAlpha" type="matrix" values="0 0 0 0 0 0 0 0 0 0 0 0 0 0 0 0 0 0 127 0" result="hardAlpha"/>
<feOffset dy="2.31027"/>
<feGaussianBlur stdDeviation="2.31027"/>
<feComposite in2="hardAlpha" operator="arithmetic" k2="-1" k3="1"/>
<feColorMatrix type="matrix" values="0 0 0 0 0.560784 0 0 0 0 0.027451 0 0 0 0 0.0941176 0 0 0 0.4 0"/>
<feBlend mode="normal" in2="shape" result="effect1_innerShadow_469_7862"/>
</filter>
<filter id="filter5_d_469_7862" x="36.6311" y="26.796" width="79.4721" height="79.4736" filterUnits="userSpaceOnUse" color-interpolation-filters="sRGB">
<feFlood flood-opacity="0" result="BackgroundImageFix"/>
<feColorMatrix in="SourceAlpha" type="matrix" values="0 0 0 0 0 0 0 0 0 0 0 0 0 0 0 0 0 0 127 0" result="hardAlpha"/>
<feOffset dy="1.15514"/>
<feGaussianBlur stdDeviation="1.15514"/>
<feComposite in2="hardAlpha" operator="out"/>
<feColorMatrix type="matrix" values="0 0 0 0 1 0 0 0 0 1 0 0 0 0 1 0 0 0 0.3 0"/>
<feBlend mode="normal" in2="BackgroundImageFix" result="effect1_dropShadow_469_7862"/>
<feBlend mode="normal" in="SourceGraphic" in2="effect1_dropShadow_469_7862" result="shape"/>
</filter>
<filter id="filter6_i_469_7862" x="50.4961" y="39.5029" width="51.75" height="54.0603" filterUnits="userSpaceOnUse" color-interpolation-filters="sRGB">
<feFlood flood-opacity="0" result="BackgroundImageFix"/>
<feBlend mode="normal" in="SourceGraphic" in2="BackgroundImageFix" result="shape"/>
<feColorMatrix in="SourceAlpha" type="matrix" values="0 0 0 0 0 0 0 0 0 0 0 0 0 0 0 0 0 0 127 0" result="hardAlpha"/>
<feOffset dy="2.31027"/>
<feGaussianBlur stdDeviation="2.31027"/>
<feComposite in2="hardAlpha" operator="arithmetic" k2="-1" k3="1"/>
<feColorMatrix type="matrix" values="0 0 0 0 0.560784 0 0 0 0 0.027451 0 0 0 0 0.0941176 0 0 0 0.3 0"/>
<feBlend mode="normal" in2="shape" result="effect1_innerShadow_469_7862"/>
</filter>
<filter id="filter7_d_469_7862" x="48.1858" y="38.3478" width="56.3705" height="56.3705" filterUnits="userSpaceOnUse" color-interpolation-filters="sRGB">
<feFlood flood-opacity="0" result="BackgroundImageFix"/>
<feColorMatrix in="SourceAlpha" type="matrix" values="0 0 0 0 0 0 0 0 0 0 0 0 0 0 0 0 0 0 127 0" result="hardAlpha"/>
<feOffset dy="1.15514"/>
<feGaussianBlur stdDeviation="1.15514"/>
<feComposite in2="hardAlpha" operator="out"/>
<feColorMatrix type="matrix" values="0 0 0 0 1 0 0 0 0 1 0 0 0 0 1 0 0 0 0.2 0"/>
<feBlend mode="normal" in2="BackgroundImageFix" result="effect1_dropShadow_469_7862"/>
<feBlend mode="normal" in="SourceGraphic" in2="effect1_dropShadow_469_7862" result="shape"/>
</filter>
<linearGradient id="paint0_linear_469_7862" x1="76.3684" y1="9.93066" x2="76.3684" y2="120.824" gradientUnits="userSpaceOnUse">
<stop stop-color="#FF909F"/>
<stop offset="1" stop-color="#FF455D"/>
</linearGradient>
<linearGradient id="paint1_linear_469_7862" x1="30.4512" y1="46.8952" x2="30.4512" y2="65.3774" gradientUnits="userSpaceOnUse">
<stop stop-color="#E1E1E1"/>
<stop offset="1" stop-color="white"/>
</linearGradient>
<linearGradient id="paint2_linear_469_7862" x1="25.5419" y1="49.2065" x2="29.0073" y2="63.6457" gradientUnits="userSpaceOnUse">
<stop stop-color="#C1C1C1"/>
<stop offset="1" stop-color="white" stop-opacity="0"/>
</linearGradient>
<linearGradient id="paint3_linear_469_7862" x1="124.019" y1="83.8603" x2="124.019" y2="65.3781" gradientUnits="userSpaceOnUse">
<stop stop-color="#E1E1E1"/>
<stop offset="1" stop-color="white"/>
</linearGradient>
<linearGradient id="paint4_linear_469_7862" x1="129.506" y1="82.7052" x2="122.575" y2="61.3352" gradientUnits="userSpaceOnUse">
<stop stop-color="#818181"/>
<stop offset="1" stop-color="white" stop-opacity="0"/>
</linearGradient>
<linearGradient id="paint5_linear_469_7862" x1="71.7483" y1="54.9819" x2="71.7483" y2="59.0249" gradientUnits="userSpaceOnUse">
<stop stop-color="#FFF1A8"/>
<stop offset="1" stop-color="#FED54A"/>
</linearGradient>
<linearGradient id="paint6_linear_469_7862" x1="71.7483" y1="71.1538" x2="71.7483" y2="75.1968" gradientUnits="userSpaceOnUse">
<stop stop-color="#FFF1A8"/>
<stop offset="1" stop-color="#FED54A"/>
</linearGradient>
<linearGradient id="paint7_linear_469_7862" x1="48.6507" y1="48.0513" x2="48.6507" y2="82.7054" gradientUnits="userSpaceOnUse">
<stop stop-color="white"/>
<stop offset="1" stop-color="#E1E1E1"/>
</linearGradient>
<linearGradient id="paint8_linear_469_7862" x1="64.8181" y1="45.7402" x2="64.8181" y2="87.3251" gradientUnits="userSpaceOnUse">
<stop offset="0.25" stop-color="white"/>
<stop offset="1" stop-color="#C1C1C1"/>
</linearGradient>
<linearGradient id="paint9_linear_469_7862" x1="34.2054" y1="60.7575" x2="34.2054" y2="72.3089" gradientUnits="userSpaceOnUse">
<stop stop-color="white"/>
<stop offset="1" stop-color="#C1C1C1"/>
</linearGradient>
<linearGradient id="paint10_linear_469_7862" x1="44.6049" y1="57.2923" x2="44.6049" y2="73.4642" gradientUnits="userSpaceOnUse">
<stop stop-color="#EBEBEB"/>
<stop offset="1" stop-color="#D9D9D9"/>
</linearGradient>
<linearGradient id="paint11_linear_469_7862" x1="46.9174" y1="57.2926" x2="46.9174" y2="73.4645" gradientUnits="userSpaceOnUse">
<stop stop-color="#EBEBEB"/>
<stop offset="1" stop-color="#D9D9D9"/>
</linearGradient>
<linearGradient id="paint12_linear_469_7862" x1="49.226" y1="57.2925" x2="49.226" y2="73.4644" gradientUnits="userSpaceOnUse">
<stop stop-color="#EBEBEB"/>
<stop offset="1" stop-color="#D9D9D9"/>
</linearGradient>
<linearGradient id="paint13_linear_469_7862" x1="51.5385" y1="57.2925" x2="51.5385" y2="73.4644" gradientUnits="userSpaceOnUse">
<stop stop-color="#EBEBEB"/>
<stop offset="1" stop-color="#D9D9D9"/>
</linearGradient>
<linearGradient id="paint14_linear_469_7862" x1="104.092" y1="48.0513" x2="104.092" y2="82.7054" gradientUnits="userSpaceOnUse">
<stop stop-color="white"/>
<stop offset="1" stop-color="#E1E1E1"/>
</linearGradient>
<linearGradient id="paint15_linear_469_7862" x1="87.9196" y1="45.7402" x2="87.9196" y2="87.3251" gradientUnits="userSpaceOnUse">
<stop offset="0.25" stop-color="white"/>
<stop offset="1" stop-color="#C1C1C1"/>
</linearGradient>
<linearGradient id="paint16_linear_469_7862" x1="118.53" y1="60.7575" x2="118.53" y2="72.3089" gradientUnits="userSpaceOnUse">
<stop stop-color="white"/>
<stop offset="1" stop-color="#C1C1C1"/>
</linearGradient>
<linearGradient id="paint17_linear_469_7862" x1="108.14" y1="57.2923" x2="108.14" y2="73.4642" gradientUnits="userSpaceOnUse">
<stop stop-color="#EBEBEB"/>
<stop offset="1" stop-color="#D9D9D9"/>
</linearGradient>
<linearGradient id="paint18_linear_469_7862" x1="105.828" y1="57.2926" x2="105.828" y2="73.4645" gradientUnits="userSpaceOnUse">
<stop stop-color="#EBEBEB"/>
<stop offset="1" stop-color="#D9D9D9"/>
</linearGradient>
<linearGradient id="paint19_linear_469_7862" x1="103.52" y1="57.2925" x2="103.52" y2="73.4644" gradientUnits="userSpaceOnUse">
<stop stop-color="#EBEBEB"/>
<stop offset="1" stop-color="#D9D9D9"/>
</linearGradient>
<linearGradient id="paint20_linear_469_7862" x1="101.208" y1="57.2925" x2="101.208" y2="73.4644" gradientUnits="userSpaceOnUse">
<stop stop-color="#EBEBEB"/>
<stop offset="1" stop-color="#D9D9D9"/>
</linearGradient>
<linearGradient id="paint21_linear_469_7862" x1="85.8982" y1="45.7402" x2="85.8982" y2="85.0149" gradientUnits="userSpaceOnUse">
<stop stop-color="white"/>
<stop offset="1" stop-color="#C1C1C1"/>
</linearGradient>
<clipPath id="clip0_469_7862">
<rect x="13.9922" y="3" width="124.755" height="124.755" rx="32.3438" fill="white"/>
</clipPath>
<clipPath id="clip1_469_7862">
<rect x="20.9219" y="9.93066" width="110.893" height="110.893" rx="25.413" fill="white"/>
</clipPath>
<clipPath id="clip2_469_7862">
<rect width="30.0335" height="20.7925" fill="white" transform="translate(16.3008 46.895)"/>
</clipPath>
<clipPath id="clip3_469_7862">
<rect width="30.0335" height="20.7925" fill="white" transform="translate(106.402 63.0669)"/>
</clipPath>
<clipPath id="clip4_469_7862">
<rect width="45.0503" height="39.2746" fill="white" transform="translate(32.4727 45.7397)"/>
</clipPath>
<clipPath id="clip5_469_7862">
<rect width="34.6541" height="39.2746" fill="white" transform="translate(85.6094 45.7397)"/>
</clipPath>
</defs>
</svg>
